<?xml version="1.0" encoding="UTF-8"?>
<!DOCTYPE svg PUBLIC "-//W3C//DTD SVG 1.1//EN" "http://www.w3.org/Graphics/SVG/1.1/DTD/svg11.dtd">
<!-- Creator: CorelDRAW 2021 (64-Bit) -->
<svg xmlns="http://www.w3.org/2000/svg" xml:space="preserve" width="21px" height="22px" version="1.1" style="shape-rendering:geometricPrecision; text-rendering:geometricPrecision; image-rendering:optimizeQuality; fill-rule:evenodd; clip-rule:evenodd"
viewBox="0 0 0.25 0.26"
 xmlns:xlink="http://www.w3.org/1999/xlink"
 xmlns:xodm="http://www.corel.com/coreldraw/odm/2003">
 <defs>
  <style type="text/css">
   <![CDATA[
    .fil0 {fill:white;fill-rule:nonzero}
   ]]>
  </style>
 </defs>
 <g id="Layer_x0020_1">
  <metadata id="CorelCorpID_0Corel-Layer"/>
  <path class="fil0" d="M0.18 0.15c-0.02,0.01 -0.04,0.01 -0.06,0.02l-0.05 -0.02 0 0.02c0,0 -0.01,0 -0.01,0 -0.03,-0.04 -0.03,0.03 0.01,0.02 0,0.04 0.03,0.06 0.05,0.06 0.03,0 0.06,-0.02 0.06,-0.06 0.04,0.01 0.04,-0.06 0.01,-0.02 0,0 -0.01,0 -0.01,0l0 -0.02zm0.02 -0.01l-0.01 0 0 0.01c0,0 0.01,0 0.01,0l0 -0.01zm-0.15 0.01c0,0 0.01,0 0.01,0l0 -0.01 -0.01 0 0 0.01zm0.13 -0.06l0 0.02c0,0 0,0.01 0,0.01l0 0.01 -0.02 0 0 -0.01c0,0 0,-0.01 0.01,-0.01l0 -0.02 -0.05 0.02c-0.02,-0.01 -0.04,-0.02 -0.07,-0.03l0 0.05 0.07 0.03 0.08 -0.03 0 -0.05 -0.02 0.01 0 0zm-0.06 -0.04c0.02,0 0.03,0.01 0.02,0.01l0.03 0.02 0.06 -0.03 -0.11 -0.04 -0.1 0.04 0.1 0.05 0.04 -0.02 -0.03 -0.02c0,0 0,0 -0.01,0 0,0 -0.01,0 -0.01,0 0,-0.01 0.01,-0.01 0.01,-0.01l0 0zm0.01 -0.05l0.12 0.05c0,0 0,0 0,0.01l-0.04 0.01 0 0.08c0.02,0 0.02,0.05 -0.02,0.06 -0.02,0.07 -0.11,0.07 -0.13,0 -0.04,-0.01 -0.04,-0.06 -0.02,-0.06l0 -0.08 -0.04 -0.01c0,-0.01 0,-0.01 0,-0.01 0.04,-0.02 0.08,-0.03 0.12,-0.05l0.01 0 0 0z"/>
 </g>
</svg>
